<svg width="871" height="224" viewBox="0 0 871 224" fill="none" xmlns="http://www.w3.org/2000/svg">
<path d="M66.6732 166.97L47.1537 177.074C31.9653 145.501 16.2701 115.181 0.000856593 85.9823L19.5204 75.8782C24.5863 86.6208 31.9378 101.46 37.6008 112.719L42.1553 110.361C53.9345 104.429 52.8858 95.0717 39.1441 68.5251L37.999 66.3129L54.6557 57.6907L56.1376 60.5535C68.6668 84.7578 69.9328 100.272 59.703 109.198L59.057 109.862L59.4611 110.643C72.6088 132.217 84.639 139.52 96.611 133.323C98.5629 132.312 100.12 131.176 100.959 130.247C104.861 137.467 105.53 138.441 109.693 145.526C108.275 147.25 105.161 149.522 102.038 151.138C85.6417 159.626 69.2529 149.959 51.9518 121.955L44.4043 125.862C50.5969 137.506 60.2877 155.59 66.6732 166.97ZM138.93 132.553L118.453 140.54C106.682 107.541 94.2741 75.7333 81.1774 44.981L101.654 36.9934C112.976 68.4379 125.384 100.246 138.93 132.553ZM151.362 123.025L148.342 104.268C156.911 106.84 167.331 107.251 174.836 105.254L175.686 105.028C183.616 102.918 187.716 96.6718 185.756 89.3084C180.594 69.9086 138.84 79.9577 131.455 52.2033C127.31 36.6269 137.379 23.1818 158.195 17.6428L159.186 17.379C168.532 14.8921 179.454 13.1989 187.59 13.0051L191.092 30.7238C183.088 30.2759 174.177 30.9791 167.239 32.8254L166.389 33.0515C157.185 35.5007 152.443 41.6146 154.252 48.4116C158.924 65.9705 199.999 55.6473 207.949 85.5257C212.32 101.952 202.836 116.454 184.427 121.353L183.436 121.617C173.099 124.367 161.838 124.786 151.362 123.025ZM223.427 104.08L223.939 85.0889C231.882 89.2059 242.046 91.5432 249.791 90.973L250.668 90.9085C258.851 90.306 264.039 84.9286 263.479 77.3295C262.005 57.3088 219.112 59.438 217.004 30.7954C215.82 14.7204 228.209 3.3765 249.691 1.79506L250.714 1.71975C260.359 1.00971 271.405 1.37195 279.436 2.69078L279.59 20.7516C271.808 18.8267 262.922 17.8647 255.761 18.3918L254.884 18.4564C245.385 19.1556 239.592 24.2838 240.108 31.2984C241.442 49.4192 283.719 46.8947 285.989 77.7294C287.237 94.6812 275.227 107.173 256.229 108.571L255.206 108.647C244.538 109.432 233.395 107.754 223.427 104.08ZM297.976 69.2053C298.967 61.0583 299.329 57.5603 299.878 50.8406C303.637 51.5246 307.412 52.0629 311.201 52.4554C316.011 52.9535 320.69 53.2908 324.947 53.4371C324.313 59.5587 323.428 66.6854 323.045 71.8018C316.225 70.8008 306.635 69.513 297.976 69.2053ZM341.731 111.56L321.06 105C340.395 73.625 358.125 43.432 374.574 14.3696L403.765 23.6336C400.025 56.7296 397.379 91.7098 394.525 128.315L373.016 121.489L375.714 96.5178L354.206 89.6917L341.731 111.56ZM360.675 75.6029L378.553 81.2766L383.286 36.8125L382.588 36.5908L360.675 75.6029ZM427.848 140.066L407.468 132.651C420.544 100.142 432.218 68.0577 442.539 36.2613L465.122 44.4779L464.546 113.345L465.097 113.545C470.609 94.9681 482.959 60.1675 485.502 51.8929L505.744 59.2578C493.219 90.2526 481.545 122.337 470.673 155.648L448.365 147.531L448.79 82.5077L448.24 82.3073C444.369 93.3734 431.956 128.775 427.848 140.066ZM523.717 65.5292L555.349 75.3328C577.323 82.1433 584.024 103.089 574.221 134.721C564.547 165.933 547.378 180.248 524.983 173.307L493.352 163.504C504.559 130.313 514.666 97.7011 523.717 65.5292ZM518.992 153.041L527.53 155.687C539.287 159.331 546.445 151.578 553.472 128.904L553.689 128.204C560.977 104.691 558.821 94.8179 547.484 91.3042L538.946 88.6581C534.208 103.451 523.484 137.559 518.992 153.041ZM584.372 155.823C586.546 147.909 587.417 144.502 588.944 137.935C592.563 139.163 596.217 140.248 599.909 141.191C604.594 142.389 609.173 143.408 613.362 144.176C611.839 150.139 609.919 157.059 608.791 162.064C602.191 160.075 592.894 157.396 584.372 155.823ZM642.302 203.869L620.7 199.808C628.033 165.553 634.34 131.998 639.648 99.0016L677.09 106.039C696.1 109.612 703.296 120.507 699.75 139.372C696.502 156.654 687.164 164.292 671.062 161.116L670.342 160.981L670.215 162.448C669.172 181.485 673.713 191.434 684.37 193.437C686.818 193.897 689.923 194.033 691.184 193.674C689.893 201.333 689.585 204.556 688.331 212.818C686.125 213.448 681.642 213.5 677.898 212.796C661.193 209.656 654.377 194.36 657.513 164.981L649.161 163.411C647.004 175.678 644.116 191.835 642.302 203.869ZM651.263 151.431L664.224 153.867C673.009 155.518 676.692 150.992 678.533 141.199L678.641 140.623C680.644 129.967 679.026 124.295 670.53 122.698L657.281 120.208L651.263 151.431ZM719.103 113.615L741.004 115.466C739.026 131.916 736.144 162.553 735.465 170.584C733.405 194.968 736.475 202.139 745.528 202.904C754.727 203.681 758.848 196.676 760.797 173.607C761.624 163.824 763.824 134.305 764.512 117.452L786.268 119.29C784.315 135.448 781.169 172.681 780.737 177.791C777.9 211.374 767.373 222.837 745.325 220.974L742.697 220.752C720.357 218.865 711.865 206.236 714.703 172.653C715.196 166.813 718.317 129.872 719.103 113.615ZM824.602 222.677L802.916 222.839C803.828 187.81 803.574 153.669 802.153 120.269L826.183 120.091L849.671 184.831L850.257 184.827C848.941 165.494 848.373 128.571 847.869 119.929L869.409 119.769C868.485 153.186 868.739 187.327 870.172 222.338L846.435 222.515L824.146 161.429L823.56 161.433C823.794 173.154 824.513 210.662 824.602 222.677Z" fill="#F0E083"/>
</svg>
